<svg version="1.0" id="Layer_1" xmlns="http://www.w3.org/2000/svg" xmlns:xlink="http://www.w3.org/1999/xlink" x="0px" y="0px"
	 width="555.394px" height="486.498px" viewBox="0 0 555.394 486.498" enable-background="new 0 0 555.394 486.498"
	 xml:space="preserve">
<path fill-rule="evenodd" clip-rule="evenodd" d="M323.7,18.774c-7.314,3.594-9.144-6.264-7.734-11.494
	c1.29-3.634,4.168-3.008,6.479-2.09C326.735,6.893,328.14,16.708,323.7,18.774"/>
<path fill-rule="evenodd" clip-rule="evenodd" d="M542.091,395.161c-1.77,3.968-14.251,7.161-22.78-5.433
	c-2.361-3.488-6.579-9.721-6.687-14.421c-0.068-2.955,0.106-6.236,1.462-8.15c2.531-3.57,10.131-3.057,14.421-1.045
	c0.859,0.403,11.511,8.236,13.375,10.449C546.708,382.293,544.875,390.207,542.091,395.161"/>
<path fill-rule="evenodd" clip-rule="evenodd" d="M391.621,481.264c-2.007,0.769-6.521,1.733-8.569,0.837
	c-8.393-3.681-9.608-20.817-3.971-28.632c1.661-2.302,5.141-3.241,9.195-3.972c6.915-1.245,9.439,3.825,9.404,3.763
	C406.837,469.914,394.533,480.148,391.621,481.264"/>
<path fill-rule="evenodd" clip-rule="evenodd" d="M425.058,76.455c5.4-10.837,18.697-9.649,20.754,0.685
	c1.814,9.117-7.917,17.964-13.062,24.156c-2.85,3.43-7.229,8.857-4.989,13.617c2.5,5.315,8.861,5.164,13.191,2.355
	c3.906-2.535,6.891-6.305,10.02-9.673c2.317-2.494,6.915-9.178,9.196-11.495c10.183-11.266,21.522-23.111,37.591-24.255
	c18.849-1.344,37.501,16.402,25.731,35.123c-8.856,14.09-23.991,17.516-34.914,21.472c-6.241,2.262-13.886,4.151-19.187,8.323
	c-3.996,3.146-11.582,11.755-6.715,16.808c11.442,3.342,22.259-3.212,31.35-8.986c7.739-4.916,20.242-9.645,26.93-0.224
	c7,9.865,1.728,18.484-8.965,22.726c-7.91,3.137-30.932,2.611-27.369,12.399c4.615,12.685,34.644,5.724,37.688,4.253
	c5.678-2.743,13.225-5.935,17.483-0.074c7.288,10.031-4.858,18.332-10.09,26.215c-7.015,10.57,15.264,8.705,14.271,18.719
	c-0.724,7.293-1.914,13.865-7.912,18.854c-6.26,5.206-3.14,14.526,12.302,23.151c6.617,3.276,7.343,6.469,6.944,13.021
	c-0.5,8.188-3.936,15.755-11.537,18.401c-22.286,7.762-33.64-15.85-51.852-22.149c-7.604-2.631-17.467,1.462-18.373,10.163
	c-0.848,8.131,3.936,13.012,11.701,18.183c38.676,14.421,28.952,35.756,25.079,42.006c-5.735,9.258-16.029,14.359-25.789,7.322
	c-8.608-6.206-27.675-42.884-38.736-30.59c-18.935,21.043,8.839,43.938,12.027,46.857c7.354,6.731,11.982,20.997,10.631,32.253
	c-1.259,10.485-4.21,20.37-13.542,26.164c-9.476,5.884-21.982,6.596-31.803,1.22c-9.205-5.037-15.578-14.474-19.118-24.196
	c-2.04-5.598-2.69-11.816-3.563-17.682c-0.388-2.609-3.937-36.606-20.306-24.629c-12.365,8.703,0.59,27.739,1.673,29.259
	c17.637,24.726,8.711,34.957,5.852,38.035c-7.018,8.396-22.232,12.982-31.499,5.639c-11.148-8.834-3.446-23.507-5.073-35.443
	c-0.557-4.083-2.741-10.89-7.524-11.992c-3.875-0.895-6.094,4.186-7.376,6.988c-2.131,4.658-3.326,11.516-3.41,16.588
	c-0.036,2.171-0.273,6.108,0.963,11.324c2.954,14.662,21.998,52.201-2.508,58.517c-10.687,2.754-20.529-3.678-22.173-14.616
	c-0.915-6.094-1.527-12.438-1.066-18.588c0.416-5.56,0.479-16.455-6.854-15.698c-9.234,0.953-7.709,36.822-28.324,28.473
	c-17.003-6.885,4.735-37.383-3.859-48.326c-0.671-0.854-0.838-0.835-1.463-1.045c-4.197,0.897-5.533,8.273-7.158,11.56
	c-2.131,4.312-4.656,8.849-7.938,12.41c-5.824,6.319-21.906,11.933-27.498,2.112c-3.18-5.585,1.59-11.552,5.185-15.633
	c4.24-5.143,6.356-9.345,9.352-14.104c2.117-3.36,8.115-17.197-0.784-20.172c-12.491-4.176-37.687,64.058-38.454,65.623
	c-7.345,14.994-13.92,21.183-26.75,26.541c-13.66,4.042-27.85-1.801-34.549-14.334c-6.689-12.518-1.195-27.67,6.754-38.33
	c4.239-5.687,10.187-11.531,15.971-15.681c3.445-2.472,43.953-27.565,28.653-40.148c-8.219-6.76-32.231,12.722-41.749,17.208
	c-10.433,4.918-26.055-0.847-22.535-14.348c0.712-2.732,4.178-10.945,1.895-13.281c-4.004-4.149-11.935,3.716-15.257,5.435
	c-10.244,5.298-22.871,8.726-31.726-0.723c-7.767-8.286-6.277-23.01,0.797-31.462c5.541-6.878,11.052-14.185,19.435-18.392
	c5.137-2.576,26.973-15.497,19.019-21.526c-7.197-5.455-16.832,4.521-25.058,4.111c-7.689-0.383-17.089-5.083-15.265-14.38
	c2.098-10.709,12.095-13.603,20.933-17.232c7.505-3.081,19.223-12.399,12.702-20.356c-9.761-11.912-27.579,9.899-34.761,16.529
	c-11.595,10.7-23.322,21.32-36.491,30.012c-10.523,6.944-27.406,13.889-37.564,2.439c-9.257-10.434-5.331-31.938,17.804-48.481
	c7.609-5.441,17.648-8.802,26.55-11.386c18.708-5.43,38.893-1.453,53.83-14.958c5.817-5.259-0.871-7.837-3.311-8.282
	c-3.469-0.635-20.31-2.275-20.331-13.314c-0.012-5.778-1.481-10.785,3.892-14.445c5.52-3.762,12.758-3.444,18.887-5.617
	c5.009-1.775,10.998-4.519,15.069-8.058c2.836-2.466,4.407-7.756-0.648-12.005c-7.463-5.874-8.921-7.36-15.729-10.347
	c-7.16-3.142-13.094-5.11-17.036-12.362c-7.254-13.342-1.836-30.161,11.03-37.27c13.635-7.537,24.195-1.43,33.287,9.583
	c2.597,3.145,5.041,6.427,8.511,10.061c0.699,0.733,9.374,10.407,21.317,5.434c3.078-1.559,16.248-4.933,4.389-17.555
	c-5.106-5.431-9.721-10.5-13.331-16.921c-5.896-10.486-1.449-24.472,12.128-24.421c16.256,0.06,20.192,42.155,31.714,26.296
	c7.036-12.116-23.556-28.471-28.808-46.51c-2.576-8.848-2.078-18.93,4.316-25.974c4.756-5.24,13.097-7.571,20.94-2.544
	c2.173,1.393,3.801,3.843,5.015,6.27c1.694,3.382,2.584,7.892,3.493,11.549c1.876,7.548,3.744,15.273,4.449,22.934
	c0.629,6.847,2.391,14.724,8.503,18.65c5.697,3.66,17.042,7.458,21.438-0.075c7.127-12.211-3.548-29.531,0.414-42.726
	c1.688-5.625,8.549-8.758,14.116-8.193c7.871,0.798,10.208,9.937,16.936,11.026c4.808,0.778,7.603-9.679,11.302-11.876
	c5.549-3.296,11.691-2.077,15.233,3.231c1.972,2.957,3.335,15.806,8.05,14.667c5.362-1.297,7.852-8.599,13.356-10.611
	c18.452-6.746,18.135,16.055,21.269,27.37c1.541,5.562,4.405,13.846,10.552,15.7c5.257,1.588,22.493-3.439,29.784-30.539
	c2.205-8.201,2.572-16.806,5.077-24.438c2.737-8.345,5.164-15.742,12.917-20.96c9.936-6.687,21.964-0.782,26.101,9.453
	c2.312,5.719,1.932,15.902,0.509,23.627c-1.589,8.619-9.723,15.078-15.719,20.868c-27.177,26.242-16.813,38.733-13.838,40.772
	C407.527,110.897,425.058,76.455,425.058,76.455"/>
<path fill-rule="evenodd" clip-rule="evenodd" d="M121.817,425.882c-4.487,3.059-10.453,7.524-17.764,4.388
	c-3.352-1.437-6.459-5.446-6.27-9.821c0.042-0.961,0.775-4.924,1.046-6.061c1.938-8.145,12.018-16.569,20.27-18.601
	c3.158-0.775,5.814,0.312,8.151,1.672c4.333,2.522,5.384,6.516,4.388,13.376C130.701,417.305,126.554,421.695,121.817,425.882"/>
<path fill-rule="evenodd" clip-rule="evenodd" d="M459.629,41.089c0,0-7.693-4.063-13.063,8.272
	c0,0-5.803,12.627,0.582,15.53c0,0,6.241,3.629,13.497-5.95C460.645,58.941,469.063,45.588,459.629,41.089"/>
</svg>
